<?xml version="1.0" standalone="no"?>
<svg viewBox="0 0 200 200" xmlns="http://www.w3.org/2000/svg">
  <path fill="#FF0066" d="M17,-27.9C28,-23.1,47,-30.6,60.5,-28C73.9,-25.4,81.9,-12.7,80.6,-0.7C79.4,11.3,69,22.6,54.9,24.1C40.9,25.7,23.1,17.5,13.4,16.4C3.6,15.3,1.8,21.4,-2.7,26.1C-7.2,30.8,-14.5,34.2,-25.1,35.7C-35.6,37.3,-49.6,37,-59.6,30.7C-69.7,24.4,-75.8,12.2,-75.3,0.3C-74.8,-11.6,-67.6,-23.3,-54.1,-23.5C-40.5,-23.7,-20.6,-12.5,-10.6,-17.9C-0.5,-23.2,-0.3,-45.2,1.4,-47.5C3,-49.9,6,-32.7,17,-27.9Z" transform="translate(100 100)" />
</svg>
