<?xml version="1.0" standalone="no"?><svg xmlns="http://www.w3.org/2000/svg" height="175" viewBox="0 0 1440 320"><path fill="#dc3545" fill-opacity="1" d="M0,288L12,245.3C24,203,48,117,72,117.3C96,117,120,203,144,218.7C168,235,192,181,216,154.7C240,128,264,128,288,128C312,128,336,128,360,138.7C384,149,408,171,432,186.7C456,203,480,213,504,218.7C528,224,552,224,576,213.3C600,203,624,181,648,186.7C672,192,696,224,720,229.3C744,235,768,213,792,170.7C816,128,840,64,864,85.3C888,107,912,213,936,245.3C960,277,984,235,1008,218.7C1032,203,1056,213,1080,197.3C1104,181,1128,139,1152,133.3C1176,128,1200,160,1224,165.3C1248,171,1272,149,1296,149.3C1320,149,1344,171,1368,170.7C1392,171,1416,149,1428,138.7L1440,128L1440,0L1428,0C1416,0,1392,0,1368,0C1344,0,1320,0,1296,0C1272,0,1248,0,1224,0C1200,0,1176,0,1152,0C1128,0,1104,0,1080,0C1056,0,1032,0,1008,0C984,0,960,0,936,0C912,0,888,0,864,0C840,0,816,0,792,0C768,0,744,0,720,0C696,0,672,0,648,0C624,0,600,0,576,0C552,0,528,0,504,0C480,0,456,0,432,0C408,0,384,0,360,0C336,0,312,0,288,0C264,0,240,0,216,0C192,0,168,0,144,0C120,0,96,0,72,0C48,0,24,0,12,0L0,0Z"></path></svg>